<?xml version="1.0" standalone="no"?><!DOCTYPE svg PUBLIC "-//W3C//DTD SVG 1.1//EN" "http://www.w3.org/Graphics/SVG/1.1/DTD/svg11.dtd"><svg t="1690614751441" class="icon" viewBox="0 0 1024 1024" version="1.1" xmlns="http://www.w3.org/2000/svg" p-id="1874" xmlns:xlink="http://www.w3.org/1999/xlink" width="200" height="200"><path d="M1017.6 976L550.4 512 1017.6 48c9.6-9.6 9.6-28.8 0-38.4-9.6-9.6-28.8-9.6-38.4 0L512 473.6 48 6.4C38.4-3.2 19.2-3.2 9.6 6.4c-9.6 9.6-9.6 28.8 0 38.4L473.6 512 6.4 976c-9.6 9.6-9.6 28.8 0 38.4 9.6 9.6 28.8 9.6 38.4 0L512 550.4l464 464c9.6 9.6 28.8 9.6 38.4 0 12.8-9.6 12.8-25.6 3.2-38.4z" fill="#959595" p-id="1875"></path></svg>