<?xml version="1.0" standalone="no"?><!DOCTYPE svg PUBLIC "-//W3C//DTD SVG 1.1//EN" "http://www.w3.org/Graphics/SVG/1.1/DTD/svg11.dtd"><svg t="1690614677192" class="icon" viewBox="0 0 1024 1024" version="1.1" xmlns="http://www.w3.org/2000/svg" p-id="2275" xmlns:xlink="http://www.w3.org/1999/xlink" width="200" height="200"><path d="M512 0C228.430769 0 0 228.430769 0 512s228.430769 512 512 512 512-228.430769 512-512S795.569231 0 512 0z m256 413.538462l-271.753846 271.753846c-7.876923 7.876923-19.692308 11.815385-31.507692 11.815384-11.815385 0-23.630769-3.938462-31.507693-11.815384l-169.353846-169.353846c-15.753846-15.753846-15.753846-47.261538 0-63.015385 15.753846-15.753846 47.261538-15.753846 63.015385 0l137.846154 137.846154 240.246153-240.246154c15.753846-15.753846 47.261538-15.753846 63.015385 0 19.692308 15.753846 19.692308 47.261538 0 63.015385z" fill="#94C86C" p-id="2276"></path></svg>